<mxfile host="Electron" modified="2024-04-13T17:51:08.812Z" agent="Mozilla/5.0 (Windows NT 10.0; Win64; x64) AppleWebKit/537.36 (KHTML, like Gecko) draw.io/24.1.0 Chrome/120.0.6099.109 Electron/28.1.0 Safari/537.36" etag="Im9ZFjI0SaFdb553Fxsd" version="24.1.0" type="device">
  <diagram name="Страница — 1" id="g_0g-YroGuJrd1VNVLLz">
    <mxGraphModel dx="780" dy="504" grid="1" gridSize="10" guides="1" tooltips="1" connect="1" arrows="1" fold="1" page="1" pageScale="1" pageWidth="827" pageHeight="1169" math="0" shadow="0">
      <root>
        <mxCell id="0" />
        <mxCell id="1" parent="0" />
        <mxCell id="XqA5XWMBO-apAbx76xMZ-7" value="" style="edgeStyle=orthogonalEdgeStyle;rounded=0;orthogonalLoop=1;jettySize=auto;html=1;fontSize=15;" parent="1" source="XqA5XWMBO-apAbx76xMZ-1" target="XqA5XWMBO-apAbx76xMZ-3" edge="1">
          <mxGeometry relative="1" as="geometry" />
        </mxCell>
        <mxCell id="XqA5XWMBO-apAbx76xMZ-1" value="Start" style="rounded=1;whiteSpace=wrap;html=1;fontSize=15;" parent="1" vertex="1">
          <mxGeometry x="340" y="40" width="120" height="60" as="geometry" />
        </mxCell>
        <mxCell id="XqA5XWMBO-apAbx76xMZ-9" value="" style="edgeStyle=orthogonalEdgeStyle;rounded=0;orthogonalLoop=1;jettySize=auto;html=1;fontSize=15;" parent="1" source="XqA5XWMBO-apAbx76xMZ-2" target="XqA5XWMBO-apAbx76xMZ-4" edge="1">
          <mxGeometry relative="1" as="geometry" />
        </mxCell>
        <mxCell id="XqA5XWMBO-apAbx76xMZ-2" value="newArray;&amp;nbsp;&lt;br style=&quot;font-size: 15px;&quot;&gt;count = 0;&lt;br style=&quot;font-size: 15px;&quot;&gt;str = 0" style="rounded=0;whiteSpace=wrap;html=1;fontSize=15;" parent="1" vertex="1">
          <mxGeometry x="340" y="230" width="120" height="60" as="geometry" />
        </mxCell>
        <mxCell id="XqA5XWMBO-apAbx76xMZ-8" value="" style="edgeStyle=orthogonalEdgeStyle;rounded=0;orthogonalLoop=1;jettySize=auto;html=1;fontSize=15;" parent="1" source="XqA5XWMBO-apAbx76xMZ-3" target="XqA5XWMBO-apAbx76xMZ-2" edge="1">
          <mxGeometry relative="1" as="geometry" />
        </mxCell>
        <mxCell id="XqA5XWMBO-apAbx76xMZ-3" value="inputArray" style="shape=parallelogram;perimeter=parallelogramPerimeter;whiteSpace=wrap;html=1;fixedSize=1;fontSize=15;" parent="1" vertex="1">
          <mxGeometry x="340" y="130" width="120" height="60" as="geometry" />
        </mxCell>
        <mxCell id="XqA5XWMBO-apAbx76xMZ-10" value="" style="edgeStyle=orthogonalEdgeStyle;rounded=0;orthogonalLoop=1;jettySize=auto;html=1;fontSize=15;" parent="1" source="XqA5XWMBO-apAbx76xMZ-4" target="XqA5XWMBO-apAbx76xMZ-5" edge="1">
          <mxGeometry relative="1" as="geometry" />
        </mxCell>
        <mxCell id="XqA5XWMBO-apAbx76xMZ-11" value="YES" style="edgeLabel;html=1;align=center;verticalAlign=middle;resizable=0;points=[];fontSize=15;" parent="XqA5XWMBO-apAbx76xMZ-10" vertex="1" connectable="0">
          <mxGeometry x="-0.125" y="-2" relative="1" as="geometry">
            <mxPoint as="offset" />
          </mxGeometry>
        </mxCell>
        <mxCell id="XqA5XWMBO-apAbx76xMZ-24" value="" style="edgeStyle=orthogonalEdgeStyle;rounded=0;orthogonalLoop=1;jettySize=auto;html=1;fontSize=15;" parent="1" source="XqA5XWMBO-apAbx76xMZ-4" target="XqA5XWMBO-apAbx76xMZ-23" edge="1">
          <mxGeometry relative="1" as="geometry" />
        </mxCell>
        <mxCell id="XqA5XWMBO-apAbx76xMZ-25" value="NO" style="edgeLabel;html=1;align=center;verticalAlign=middle;resizable=0;points=[];fontSize=15;" parent="XqA5XWMBO-apAbx76xMZ-24" vertex="1" connectable="0">
          <mxGeometry x="-0.0667" y="1" relative="1" as="geometry">
            <mxPoint x="1" as="offset" />
          </mxGeometry>
        </mxCell>
        <mxCell id="XqA5XWMBO-apAbx76xMZ-4" value="str &amp;lt;= inputArray.Length" style="rhombus;whiteSpace=wrap;html=1;fontSize=15;" parent="1" vertex="1">
          <mxGeometry x="300" y="320" width="200" height="70" as="geometry" />
        </mxCell>
        <mxCell id="XqA5XWMBO-apAbx76xMZ-12" value="" style="edgeStyle=orthogonalEdgeStyle;rounded=0;orthogonalLoop=1;jettySize=auto;html=1;fontSize=15;" parent="1" source="XqA5XWMBO-apAbx76xMZ-5" target="XqA5XWMBO-apAbx76xMZ-6" edge="1">
          <mxGeometry relative="1" as="geometry" />
        </mxCell>
        <mxCell id="XqA5XWMBO-apAbx76xMZ-13" value="YES" style="edgeLabel;html=1;align=center;verticalAlign=middle;resizable=0;points=[];fontSize=15;" parent="XqA5XWMBO-apAbx76xMZ-12" vertex="1" connectable="0">
          <mxGeometry x="-0.3611" relative="1" as="geometry">
            <mxPoint as="offset" />
          </mxGeometry>
        </mxCell>
        <mxCell id="XqA5XWMBO-apAbx76xMZ-20" style="edgeStyle=orthogonalEdgeStyle;rounded=0;orthogonalLoop=1;jettySize=auto;html=1;exitX=1;exitY=0.5;exitDx=0;exitDy=0;fontSize=15;" parent="1" source="XqA5XWMBO-apAbx76xMZ-5" target="XqA5XWMBO-apAbx76xMZ-18" edge="1">
          <mxGeometry relative="1" as="geometry">
            <Array as="points">
              <mxPoint x="560" y="480" />
              <mxPoint x="560" y="705" />
            </Array>
          </mxGeometry>
        </mxCell>
        <mxCell id="XqA5XWMBO-apAbx76xMZ-21" value="NO" style="edgeLabel;html=1;align=center;verticalAlign=middle;resizable=0;points=[];fontSize=15;" parent="XqA5XWMBO-apAbx76xMZ-20" vertex="1" connectable="0">
          <mxGeometry x="-0.115" relative="1" as="geometry">
            <mxPoint as="offset" />
          </mxGeometry>
        </mxCell>
        <mxCell id="XqA5XWMBO-apAbx76xMZ-5" value="inputArray[str.Length] &amp;lt;= 3" style="rhombus;whiteSpace=wrap;html=1;fontSize=15;" parent="1" vertex="1">
          <mxGeometry x="285" y="440" width="230" height="80" as="geometry" />
        </mxCell>
        <mxCell id="XqA5XWMBO-apAbx76xMZ-17" value="" style="edgeStyle=orthogonalEdgeStyle;rounded=0;orthogonalLoop=1;jettySize=auto;html=1;fontSize=15;" parent="1" source="XqA5XWMBO-apAbx76xMZ-6" target="XqA5XWMBO-apAbx76xMZ-16" edge="1">
          <mxGeometry relative="1" as="geometry" />
        </mxCell>
        <mxCell id="XqA5XWMBO-apAbx76xMZ-6" value="inputArray[str] = newArray[count]" style="rounded=0;whiteSpace=wrap;html=1;fontSize=15;" parent="1" vertex="1">
          <mxGeometry x="285" y="555" width="230" height="60" as="geometry" />
        </mxCell>
        <mxCell id="XqA5XWMBO-apAbx76xMZ-19" value="" style="edgeStyle=orthogonalEdgeStyle;rounded=0;orthogonalLoop=1;jettySize=auto;html=1;fontSize=15;" parent="1" source="XqA5XWMBO-apAbx76xMZ-16" target="XqA5XWMBO-apAbx76xMZ-18" edge="1">
          <mxGeometry relative="1" as="geometry" />
        </mxCell>
        <mxCell id="XqA5XWMBO-apAbx76xMZ-16" value="count = count + 1" style="rounded=0;whiteSpace=wrap;html=1;fontSize=15;" parent="1" vertex="1">
          <mxGeometry x="340" y="640" width="120" height="30" as="geometry" />
        </mxCell>
        <mxCell id="XqA5XWMBO-apAbx76xMZ-22" style="edgeStyle=orthogonalEdgeStyle;rounded=0;orthogonalLoop=1;jettySize=auto;html=1;entryX=0;entryY=0.5;entryDx=0;entryDy=0;fontSize=15;" parent="1" source="XqA5XWMBO-apAbx76xMZ-18" target="XqA5XWMBO-apAbx76xMZ-4" edge="1">
          <mxGeometry relative="1" as="geometry">
            <Array as="points">
              <mxPoint x="240" y="705" />
              <mxPoint x="240" y="355" />
            </Array>
          </mxGeometry>
        </mxCell>
        <mxCell id="XqA5XWMBO-apAbx76xMZ-18" value="str = str + 1" style="rounded=0;whiteSpace=wrap;html=1;fontSize=15;" parent="1" vertex="1">
          <mxGeometry x="340" y="690" width="120" height="30" as="geometry" />
        </mxCell>
        <mxCell id="XqA5XWMBO-apAbx76xMZ-27" value="" style="edgeStyle=orthogonalEdgeStyle;rounded=0;orthogonalLoop=1;jettySize=auto;html=1;fontSize=15;" parent="1" source="XqA5XWMBO-apAbx76xMZ-23" target="XqA5XWMBO-apAbx76xMZ-26" edge="1">
          <mxGeometry relative="1" as="geometry" />
        </mxCell>
        <mxCell id="XqA5XWMBO-apAbx76xMZ-23" value="Print newArray[count]" style="shape=document;whiteSpace=wrap;html=1;boundedLbl=1;fontSize=15;" parent="1" vertex="1">
          <mxGeometry x="600" y="327.5" width="120" height="55" as="geometry" />
        </mxCell>
        <mxCell id="XqA5XWMBO-apAbx76xMZ-26" value="END" style="rounded=1;whiteSpace=wrap;html=1;fontSize=15;" parent="1" vertex="1">
          <mxGeometry x="600" y="430" width="120" height="60" as="geometry" />
        </mxCell>
      </root>
    </mxGraphModel>
  </diagram>
</mxfile>
